<?xml version="1.0" encoding="UTF-8"?><svg id="Layer_1" xmlns="http://www.w3.org/2000/svg" viewBox="0 0 1080 1080"><defs><style>.cls-1{fill:#003462;}.cls-2{fill:#c49a6c;}.cls-3{fill:#231f20;}.cls-4{fill:#be1e2d;}.cls-5{fill:#fff;}</style></defs><circle class="cls-1" cx="540" cy="540" r="296.08"/><path class="cls-3" d="M190.78,612.86c-3.46.35-6.8.29-10.03-.17-3.23-.46-6.15-1.49-8.76-3.07-2.61-1.59-4.79-3.79-6.55-6.62-1.76-2.83-2.85-6.4-3.29-10.73-.44-4.33-.07-8.05,1.08-11.17,1.16-3.12,2.85-5.72,5.09-7.79,2.24-2.08,4.9-3.67,7.97-4.77,3.07-1.1,6.34-1.82,9.8-2.17l39.75-4.01.6,5.95-38.2,3.85c-2.31.23-4.74.69-7.3,1.37-2.57.68-4.91,1.76-7.03,3.21-2.12,1.46-3.79,3.39-5.02,5.78-1.23,2.4-1.66,5.46-1.28,9.19.38,3.72,1.41,6.64,3.09,8.75,1.68,2.11,3.71,3.66,6.08,4.67,2.37,1,4.88,1.59,7.53,1.74,2.65.16,5.13.12,7.43-.11l38.2-3.85.6,5.94-39.75,4.01Z"/><path class="cls-3" d="M200.37,631.14c.76-.21,1.68-.51,2.75-.87,1.07-.36,2.16-.72,3.26-1.06,1.11-.34,2.14-.68,3.09-1.01.95-.33,1.69-.57,2.22-.72l1.47,5.23c-1.51.49-2.96.94-4.36,1.37-1.4.42-2.29.75-2.67.99l.07.26c2.52.42,4.94,1.62,7.24,3.61,2.3,1.99,3.91,4.61,4.82,7.86.88,3.14,1.11,5.84.66,8.09-.44,2.26-1.31,4.18-2.6,5.77-1.29,1.59-2.94,2.9-4.92,3.93-1.99,1.03-4.1,1.86-6.33,2.49l-24.2,6.81-1.47-5.23,23.94-6.74c1.64-.46,3.2-1.06,4.67-1.79,1.47-.73,2.72-1.63,3.75-2.7,1.03-1.07,1.72-2.37,2.09-3.88.36-1.51.25-3.32-.33-5.41-.54-1.92-1.39-3.64-2.55-5.16-1.16-1.52-2.6-2.72-4.33-3.58-1.73-.86-3.74-1.36-6.03-1.51s-4.84.19-7.65.98l-20.33,5.72-1.47-5.23,29.21-8.22Z"/><path class="cls-3" d="M228.15,678.97l2.06,5.03-39.08,16.02-2.06-5.03,39.08-16.02ZM243.11,671.37c1.07-.44,2.12-.45,3.15-.02,1.03.42,1.76,1.17,2.2,2.23.43,1.06.43,2.11,0,3.13-.44,1.02-1.19,1.76-2.26,2.2-1.07.44-2.12.44-3.15.02-1.03-.43-1.76-1.17-2.2-2.23-.43-1.06-.44-2.11,0-3.13.44-1.03,1.19-1.76,2.26-2.2Z"/><path class="cls-3" d="M242.43,720.78l-5.46-10.64-24.48,12.56c-1.68.86-2.75,1.99-3.2,3.37-.46,1.39-.27,2.89.56,4.5.47.91,1.06,1.78,1.79,2.59.73.81,1.5,1.56,2.32,2.22l-4.19,2.66c-.79-.75-1.63-1.64-2.51-2.69-.88-1.04-1.55-2.02-2.02-2.94-.88-1.72-1.38-3.33-1.5-4.83-.12-1.5.06-2.85.54-4.05.48-1.2,1.22-2.27,2.21-3.22.99-.95,2.16-1.77,3.51-2.46l24.48-12.56-4.13-8.06,4.39-2.25,4.13,8.06,10.82-5.55,2.48,4.84-10.82,5.55,5.45,10.64-4.39,2.25Z"/><path class="cls-3" d="M245.29,778.9c-3.86.08-7.25-.77-10.16-2.54-2.91-1.78-5.43-4.21-7.54-7.3-1.81-2.64-2.99-5.34-3.55-8.1-.56-2.76-.56-5.47.02-8.14.57-2.67,1.7-5.17,3.38-7.53,1.67-2.35,3.87-4.46,6.58-6.32,2.61-1.79,5.32-3.02,8.11-3.69,2.79-.67,5.53-.79,8.23-.36,2.69.42,5.22,1.37,7.58,2.82,2.36,1.46,4.41,3.45,6.15,5.99,1.81,2.64,2.93,5.29,3.39,7.94.45,2.65.38,5.19-.21,7.61-.6,2.42-1.64,4.65-3.12,6.69-1.48,2.04-3.23,3.75-5.24,5.13l-3.17,2.17-19.85-29c-.96.66-2.05,1.68-3.27,3.07-1.23,1.39-2.21,3.07-2.93,5.02-.73,1.96-1.02,4.12-.88,6.48.14,2.36,1.11,4.86,2.92,7.5,1.57,2.29,3.64,4.13,6.21,5.52,2.57,1.38,5.2,2,7.9,1.84l-.54,5.2ZM256.74,766.01c1.56-1.07,2.8-2.38,3.74-3.93.93-1.55,1.54-3.22,1.84-4.99.3-1.78.24-3.61-.16-5.49-.4-1.88-1.17-3.65-2.29-5.29-1.67-2.44-3.57-4.13-5.68-5.06-2.12-.93-4.15-1.42-6.1-1.47-1.96-.05-3.69.15-5.19.59-1.51.44-2.48.82-2.94,1.13l16.78,24.51Z"/><path class="cls-3" d="M283.25,822.18l-.12-.13c-1.64.39-3.29.5-4.94.32s-3.24-.57-4.76-1.16c-1.53-.59-2.97-1.36-4.34-2.31-1.37-.95-2.59-1.99-3.67-3.13-2.21-2.32-3.85-4.84-4.92-7.57-1.08-2.72-1.56-5.47-1.46-8.23.1-2.76.76-5.47,1.98-8.13,1.22-2.65,2.99-5.1,5.33-7.32,2.34-2.22,4.87-3.88,7.58-4.96,2.71-1.08,5.45-1.61,8.22-1.57,2.76.03,5.48.66,8.15,1.87,2.67,1.21,5.1,2.98,7.31,5.3,1.08,1.14,2.06,2.41,2.94,3.82.88,1.41,1.57,2.9,2.09,4.45s.82,3.16.92,4.82c.1,1.65-.09,3.29-.57,4.91l.13.13,24.84-23.62,3.75,3.94-50.08,47.63-3.74-3.94,5.37-5.1ZM293.56,813.13c1.72-1.64,3.03-3.51,3.93-5.61.9-2.11,1.37-4.26,1.42-6.47s-.33-4.39-1.12-6.56c-.8-2.16-2.04-4.14-3.75-5.93-1.75-1.84-3.66-3.18-5.74-4.04-2.08-.86-4.18-1.27-6.3-1.25-2.12.02-4.21.48-6.25,1.38-2.04.9-3.93,2.17-5.65,3.81-1.72,1.64-3.09,3.45-4.09,5.45-1,2-1.57,4.05-1.7,6.17-.13,2.12.18,4.24.94,6.36.75,2.12,2,4.1,3.75,5.93,1.71,1.79,3.62,3.14,5.74,4.04s4.28,1.38,6.49,1.45c2.21.06,4.39-.3,6.53-1.09,2.15-.79,4.08-2.01,5.8-3.65Z"/><path class="cls-3" d="M356.01,810.29l7.75,4.5-7.06,58.69,47.47-35.22,7.36,4.28-32.5,55.97-5.17-3,28.65-49.33-.16-.09-49.79,37.05-2.27-1.32,7.19-61.79-.16-.09-28.64,49.33-5.17-3,32.5-55.97Z"/><path class="cls-3" d="M441.08,912.26c-3.03,2.39-6.25,3.75-9.64,4.09-3.4.34-6.87-.09-10.41-1.28-3.03-1.02-5.6-2.46-7.71-4.33-2.11-1.87-3.74-4.04-4.88-6.51-1.14-2.47-1.76-5.16-1.84-8.05-.08-2.89.41-5.89,1.45-9.01,1.01-3,2.43-5.61,4.26-7.83,1.83-2.22,3.94-3.96,6.35-5.25,2.41-1.28,4.99-2.05,7.75-2.31,2.76-.26,5.6.1,8.52,1.08,3.04,1.02,5.53,2.46,7.49,4.3,1.96,1.85,3.43,3.92,4.41,6.21.98,2.29,1.49,4.7,1.54,7.22.04,2.52-.32,4.94-1.1,7.25l-1.22,3.64-33.31-11.2c-.37,1.1-.63,2.57-.77,4.42-.14,1.85.09,3.77.69,5.78.6,2,1.66,3.9,3.19,5.7,1.53,1.8,3.81,3.21,6.84,4.23,2.63.88,5.39,1.11,8.28.66,2.89-.44,5.36-1.54,7.41-3.29l2.7,4.48ZM442.47,895.08c.6-1.79.81-3.59.62-5.38-.19-1.8-.71-3.5-1.54-5.1-.83-1.6-1.98-3.03-3.43-4.29-1.46-1.26-3.13-2.21-5.02-2.84-2.81-.94-5.33-1.15-7.58-.62-2.25.53-4.17,1.36-5.76,2.5-1.59,1.14-2.85,2.34-3.79,3.6-.93,1.26-1.49,2.15-1.66,2.67l28.16,9.47Z"/><path class="cls-3" d="M486.54,892.02l-11.72-2.35-5.4,26.98c-.37,1.85-.16,3.39.65,4.6.8,1.22,2.09,2.01,3.87,2.36,1.01.2,2.06.27,3.14.21s2.15-.21,3.18-.44l-.53,4.93c-1.08.16-2.3.25-3.66.29-1.36.04-2.55-.04-3.55-.25-1.9-.38-3.47-.99-4.72-1.83-1.25-.84-2.19-1.82-2.83-2.94-.64-1.12-1.02-2.36-1.15-3.73-.13-1.36-.04-2.79.26-4.28l5.4-26.98-8.88-1.78.97-4.84,8.88,1.78,2.39-11.92,5.33,1.07-2.39,11.92,11.72,2.35-.97,4.84Z"/><path class="cls-3" d="M501.39,862.32l5.42.39-2.42,34.19h.18c1.25-2.22,3.19-4.08,5.84-5.57,2.65-1.49,5.66-2.12,9.03-1.88,3.25.23,5.87.94,7.84,2.11,1.97,1.18,3.49,2.65,4.55,4.4,1.06,1.76,1.73,3.74,2.03,5.97.3,2.22.36,4.49.2,6.79l-1.78,25.08-5.42-.38,1.76-24.8c.12-1.7.09-3.37-.1-5-.19-1.63-.61-3.11-1.27-4.44-.66-1.33-1.64-2.42-2.95-3.28-1.3-.86-3.04-1.36-5.2-1.51-1.99-.14-3.89.07-5.72.65-1.83.57-3.44,1.53-4.83,2.87-1.4,1.34-2.55,3.06-3.45,5.16-.91,2.11-1.46,4.62-1.67,7.53l-1.49,21.06-5.42-.39,4.88-68.94Z"/><path class="cls-3" d="M551.7,912.88c-.29-3.22-.02-6.22.81-9.02.83-2.8,2.12-5.27,3.86-7.42,1.74-2.15,3.92-3.89,6.52-5.23,2.6-1.34,5.5-2.16,8.69-2.45,3.19-.29,6.17-.01,8.94.83,2.78.85,5.23,2.17,7.37,3.96,2.14,1.79,3.87,3.99,5.2,6.59,1.33,2.6,2.14,5.51,2.44,8.73.29,3.22.02,6.23-.81,9.02-.83,2.8-2.14,5.28-3.91,7.43-1.77,2.15-3.95,3.9-6.52,5.23-2.58,1.34-5.46,2.15-8.64,2.45-3.19.29-6.18.02-8.99-.83-2.81-.84-5.26-2.16-7.37-3.96-2.11-1.79-3.82-3.99-5.15-6.59-1.33-2.6-2.14-5.51-2.44-8.73ZM557.11,912.38c.22,2.37.8,4.56,1.74,6.59.94,2.02,2.21,3.74,3.79,5.16,1.59,1.41,3.44,2.48,5.57,3.21,2.13.72,4.45.97,6.98.74,2.53-.23,4.77-.9,6.73-2,1.96-1.1,3.59-2.49,4.9-4.17,1.3-1.68,2.23-3.6,2.79-5.77.56-2.16.73-4.43.51-6.79-.22-2.37-.8-4.56-1.74-6.59-.95-2.02-2.21-3.74-3.8-5.16-1.58-1.42-3.44-2.49-5.57-3.21-2.13-.72-4.45-.97-6.98-.74-2.53.23-4.77.9-6.73,2-1.96,1.1-3.59,2.49-4.89,4.17-1.3,1.68-2.23,3.6-2.79,5.76-.56,2.16-.73,4.43-.51,6.8Z"/><path class="cls-3" d="M652.21,909.26l-.17.04c-.44,1.63-1.13,3.13-2.07,4.49-.94,1.36-2.04,2.57-3.29,3.63-1.25,1.06-2.61,1.96-4.1,2.71-1.49.75-2.99,1.33-4.5,1.73-3.09.83-6.09,1.07-9,.72-2.91-.35-5.55-1.23-7.93-2.64-2.38-1.41-4.45-3.28-6.2-5.62-1.75-2.34-3.05-5.06-3.89-8.18-.84-3.12-1.09-6.13-.74-9.03.34-2.9,1.19-5.56,2.54-7.98,1.35-2.41,3.19-4.5,5.53-6.27,2.34-1.77,5.05-3.07,8.14-3.9,1.52-.41,3.1-.66,4.77-.76s3.3,0,4.91.29c1.61.29,3.17.79,4.67,1.49,1.5.7,2.85,1.64,4.05,2.84l.17-.05-8.92-33.1,5.25-1.41,17.98,66.73-5.25,1.41-1.93-7.15ZM649.16,895.88c-.62-2.29-1.64-4.34-3.06-6.13-1.42-1.8-3.09-3.24-5.01-4.33-1.92-1.09-4.02-1.8-6.3-2.14-2.28-.33-4.61-.18-7,.47-2.45.66-4.55,1.7-6.29,3.11-1.74,1.42-3.11,3.07-4.11,4.94-.99,1.88-1.58,3.93-1.76,6.16-.18,2.23.04,4.49.66,6.78.62,2.29,1.56,4.36,2.84,6.19,1.28,1.84,2.82,3.31,4.62,4.44,1.8,1.12,3.82,1.86,6.03,2.21,2.22.35,4.56.19,7-.47,2.39-.64,4.49-1.68,6.29-3.12,1.8-1.43,3.26-3.1,4.37-5.01,1.11-1.91,1.83-3.99,2.16-6.26.33-2.27.18-4.55-.44-6.84Z"/><path class="cls-3" d="M656.24,852.79c-.44-1.07-.45-2.12-.02-3.15.43-1.03,1.17-1.76,2.23-2.2s2.11-.43,3.13,0c1.03.44,1.76,1.19,2.2,2.26.44,1.07.44,2.12.02,3.15-.43,1.03-1.17,1.76-2.23,2.2-1.06.44-2.11.43-3.13,0s-1.76-1.19-2.2-2.26ZM663.83,867.76l5.03-2.06,15.99,39.09-5.03,2.06-15.99-39.09Z"/><path class="cls-3" d="M700.05,886.28c2.07,1.46,4.37,2.18,6.9,2.18,2.53,0,4.89-.58,7.08-1.74,1.01-.54,1.94-1.24,2.78-2.1.84-.86,1.51-1.8,1.99-2.82.49-1.02.76-2.08.82-3.18.06-1.1-.19-2.19-.76-3.27-.91-1.72-2.15-2.72-3.7-3-1.55-.28-3.25-.24-5.11.13-1.86.36-3.84.88-5.95,1.55-2.1.67-4.15,1.07-6.14,1.19-1.98.12-3.87-.17-5.65-.88-1.78-.71-3.3-2.25-4.55-4.62-.97-1.83-1.44-3.62-1.41-5.36.03-1.74.41-3.38,1.14-4.9.73-1.52,1.72-2.9,2.99-4.12,1.26-1.22,2.67-2.25,4.22-3.07,3.04-1.61,5.97-2.44,8.78-2.49,2.81-.04,5.48.82,7.99,2.59l-2.95,4.88c-1.82-1.24-3.65-1.94-5.48-2.11-1.83-.16-3.84.33-6.03,1.49-.85.45-1.67,1.06-2.46,1.83-.79.77-1.43,1.59-1.92,2.47-.49.88-.79,1.83-.89,2.85-.11,1.02.1,2.02.61,2.99.89,1.67,2.09,2.62,3.61,2.84,1.52.22,3.2.14,5.05-.25,1.84-.39,3.81-.94,5.9-1.63,2.09-.69,4.13-1.11,6.12-1.23,1.99-.12,3.89.21,5.71,1,1.82.79,3.4,2.46,4.75,4.98,1.03,1.94,1.56,3.81,1.6,5.62.04,1.81-.31,3.53-1.05,5.17-.74,1.64-1.78,3.12-3.12,4.45-1.34,1.33-2.89,2.47-4.65,3.4-3.2,1.7-6.45,2.63-9.75,2.79-3.3.16-6.35-.66-9.16-2.48l2.7-5.16Z"/><path class="cls-3" d="M740.45,830.84l-9.86,6.75,15.54,22.7c1.07,1.56,2.32,2.48,3.75,2.75,1.43.27,2.89-.1,4.39-1.12.85-.58,1.63-1.28,2.35-2.11.72-.82,1.35-1.68,1.91-2.58l3.16,3.82c-.64.88-1.42,1.82-2.35,2.82-.92,1-1.81,1.79-2.65,2.37-1.6,1.09-3.13,1.79-4.6,2.1-1.47.31-2.83.3-4.08-.03-1.25-.33-2.41-.92-3.47-1.78-1.07-.86-2.03-1.92-2.89-3.18l-15.54-22.7-7.47,5.12-2.79-4.07,7.47-5.12-6.87-10.03,4.48-3.07,6.87,10.03,9.86-6.75,2.79,4.07Z"/><path class="cls-3" d="M827.57,784.84c1,5.11.81,9.78-.59,13.99-1.4,4.22-3.69,8.05-6.89,11.51-3.32,3.6-6.97,6.32-10.96,8.18-3.99,1.86-8.08,2.83-12.26,2.92-4.19.09-8.36-.69-12.54-2.32-4.17-1.63-8.08-4.12-11.71-7.46-3.63-3.35-6.41-7.02-8.36-11.03-1.94-4.01-3.04-8.1-3.29-12.27-.25-4.18.37-8.34,1.88-12.49,1.51-4.15,3.92-8.03,7.23-11.62,2.95-3.2,6.27-5.65,9.97-7.38,3.7-1.72,7.86-2.38,12.47-1.99l-.29,6.38c-3.59-.6-6.96-.23-10.09,1.1-3.14,1.34-5.81,3.2-8.02,5.6-2.82,3.06-4.84,6.32-6.03,9.78-1.19,3.46-1.65,6.92-1.37,10.38.29,3.47,1.28,6.84,2.97,10.13,1.69,3.29,4.02,6.3,6.98,9.02,2.96,2.72,6.14,4.8,9.56,6.22,3.41,1.42,6.86,2.13,10.34,2.14,3.48,0,6.89-.73,10.24-2.2,3.35-1.47,6.43-3.74,9.26-6.8,1.11-1.2,2.11-2.57,3-4.13.9-1.56,1.61-3.22,2.13-5,.52-1.78.83-3.64.94-5.6.11-1.96-.1-3.95-.62-6l6.07-1.06Z"/><path class="cls-3" d="M787.6,738.73l2.9-4.59,28.98,18.32.1-.15c-1.38-2.16-2.1-4.75-2.16-7.8-.06-3.04.81-5.98,2.62-8.85,1.74-2.75,3.6-4.72,5.57-5.91,1.97-1.18,3.98-1.82,6.03-1.92,2.05-.1,4.12.25,6.21,1.04,2.1.79,4.13,1.8,6.08,3.04l21.25,13.43-2.9,4.59-21.02-13.28c-1.44-.91-2.93-1.67-4.45-2.28-1.52-.61-3.03-.93-4.52-.98-1.49-.04-2.91.3-4.28,1.04-1.37.74-2.64,2.03-3.8,3.87-1.06,1.69-1.77,3.47-2.14,5.35-.36,1.88-.28,3.75.24,5.61.52,1.86,1.49,3.69,2.91,5.48,1.43,1.8,3.37,3.47,5.85,5.04l17.85,11.28-2.9,4.59-58.42-36.93Z"/><path class="cls-3" d="M879.11,687.16c.73.31,1.62.66,2.68,1.04,1.06.39,2.13.8,3.21,1.22,1.08.42,2.09.81,3.04,1.15.95.34,1.67.61,2.18.83l-2.13,5c-1.48-.57-2.9-1.12-4.26-1.67s-2.26-.84-2.69-.9l-.11.25c1.7,1.91,2.83,4.36,3.38,7.35.55,2.99.16,6.04-1.16,9.15-1.28,3-2.8,5.25-4.57,6.77-1.77,1.51-3.65,2.48-5.66,2.9-2,.43-4.1.41-6.28-.07-2.19-.47-4.34-1.16-6.47-2.07l-23.13-9.85,2.13-5,22.88,9.75c1.57.67,3.16,1.18,4.76,1.54,1.6.36,3.14.44,4.61.24s2.83-.77,4.06-1.72c1.24-.95,2.28-2.43,3.13-4.43.78-1.83,1.2-3.71,1.25-5.62.05-1.91-.33-3.75-1.13-5.5-.81-1.75-2.06-3.4-3.75-4.95-1.69-1.54-3.89-2.89-6.58-4.04l-19.43-8.27,2.13-5,27.92,11.89Z"/><path class="cls-3" d="M867.77,661.96c-.76-.21-1.7-.44-2.8-.69s-2.21-.51-3.34-.8c-1.12-.28-2.17-.53-3.16-.74s-1.74-.39-2.27-.54l1.47-5.23c1.54.37,3.02.74,4.44,1.1,1.42.37,2.35.55,2.79.55-2.03-2.01-3.51-4.28-4.45-6.8-.94-2.52-.98-5.29-.13-8.31.15-.52.33-1.02.56-1.49.23-.47.47-.95.74-1.44l5.02,2.07c-.43.63-.74,1.27-.92,1.91-.63,2.27-.82,4.33-.55,6.2.27,1.86.9,3.51,1.89,4.95.99,1.44,2.28,2.66,3.86,3.67,1.58,1.01,3.37,1.79,5.37,2.35l22.18,6.23-1.47,5.23-29.22-8.2Z"/><path class="cls-3" d="M905.38,600.01c2.14,2.43,3.59,5.02,4.34,7.77.76,2.75.89,5.62.41,8.6-.51,3.16-1.53,5.99-3.04,8.5-1.52,2.5-3.41,4.55-5.67,6.14-2.26,1.59-4.82,2.7-7.67,3.34s-5.87.7-9.06.18c-3.19-.52-6.03-1.53-8.54-3.04-2.5-1.51-4.58-3.37-6.22-5.6-1.64-2.22-2.79-4.76-3.44-7.62-.65-2.86-.72-5.86-.2-9.02.49-3.04,1.58-5.75,3.26-8.14,1.69-2.39,3.83-4.41,6.45-6.07l2.55,4.82c-1.99,1.27-3.64,2.75-4.93,4.43-1.29,1.69-2.11,3.6-2.46,5.75-.41,2.5-.32,4.84.25,7.02.57,2.17,1.51,4.1,2.81,5.78,1.3,1.68,2.93,3.06,4.89,4.14,1.96,1.08,4.11,1.81,6.45,2.19,2.35.38,4.62.37,6.81-.04,2.2-.41,4.18-1.21,5.95-2.39,1.77-1.18,3.26-2.71,4.49-4.59,1.23-1.88,2.05-4.07,2.46-6.57.37-2.27.18-4.42-.57-6.47-.75-2.05-1.88-3.9-3.41-5.55l4.1-3.56Z"/><path class="cls-3" d="M843.71,582.99l.07-5.43,34.28.47v-.18c-2.3-1.12-4.27-2.96-5.91-5.52-1.64-2.56-2.44-5.53-2.39-8.91.04-3.26.6-5.91,1.66-7.95,1.06-2.04,2.44-3.64,4.13-4.79,1.69-1.15,3.64-1.94,5.84-2.37,2.2-.42,4.46-.62,6.77-.59l25.14.34-.07,5.43-24.86-.34c-1.71-.02-3.37.1-4.99.38-1.62.28-3.07.79-4.36,1.53-1.29.74-2.32,1.78-3.1,3.13-.78,1.35-1.19,3.11-1.22,5.28-.03,1.99.3,3.89.97,5.68.68,1.79,1.72,3.35,3.14,4.66,1.42,1.32,3.2,2.37,5.35,3.15,2.15.78,4.69,1.2,7.62,1.24l21.12.29-.07,5.43-69.1-.95Z"/><path class="cls-3" d="M176.36,493.56c-1.56,1.71-2.74,3.44-3.54,5.19-.8,1.75-1.25,3.47-1.34,5.15-.12,2.13.29,3.89,1.22,5.29.93,1.4,2.21,2.14,3.83,2.24,1.12.06,2.06-.22,2.83-.85.77-.63,1.44-1.48,2.04-2.54.59-1.06,1.12-2.27,1.59-3.62.47-1.35.97-2.68,1.49-4,2.1-5.27,4.71-9.07,7.85-11.39,3.14-2.32,7.11-3.35,11.92-3.08,3.25.18,6.16.9,8.72,2.13,2.57,1.24,4.74,2.96,6.49,5.17,1.76,2.21,3.07,4.86,3.93,7.97.86,3.11,1.19,6.6.97,10.46-.45,8.01-3.25,15.29-8.39,21.85l-12.87-7.8c2.32-2.34,4.08-4.69,5.28-7.03,1.2-2.35,1.87-4.7,2-7.05.15-2.69-.35-4.72-1.51-6.11-1.16-1.38-2.52-2.12-4.09-2.21-.95-.05-1.79.07-2.51.36-.72.3-1.39.82-2.02,1.57-.63.75-1.24,1.74-1.81,2.97s-1.22,2.72-1.94,4.48c-.79,2.09-1.65,4.13-2.58,6.13-.92,2-2.11,3.76-3.54,5.28-1.43,1.52-3.2,2.71-5.3,3.58-2.1.87-4.72,1.21-7.85,1.03-3.13-.18-5.95-.86-8.43-2.04-2.49-1.18-4.59-2.76-6.3-4.74-1.71-1.98-3-4.35-3.85-7.13-.86-2.77-1.19-5.84-1-9.2.17-3.13.8-6.38,1.86-9.75,1.06-3.37,2.52-6.57,4.37-9.61l12.48,7.27Z"/><path class="cls-3" d="M166.59,451.02l62.36,11.53-3,16.21-62.36-11.53,3-16.21Z"/><path class="cls-3" d="M175.44,416.83l47.31,14.39,5.75-18.91,13.36,4.07-10.55,34.68-60.67-18.45,4.8-15.77Z"/><path class="cls-3" d="M189.36,377.98l41.43,2.81-28.21-30.52,7.71-16.17,45.71,51.44-5.65,11.84-68.71-3.25,7.71-16.17Z"/><path class="cls-3" d="M251.24,300.41l-11.3,16.01,8.66,6.11,10.67-15.12,11.41,8.05-10.67,15.12,8.93,6.3,11.29-16.01,11.41,8.05-20.8,29.48-51.81-36.56,20.8-29.48,11.41,8.05Z"/><path class="cls-3" d="M334.45,283.69l-14.37,14.64-28.42-5.86,17.41,17.08-11.55,11.76-45.26-44.42,17.97-18.3c2.47-2.52,5.01-4.36,7.59-5.51,2.59-1.15,5.12-1.71,7.6-1.67,2.48.03,4.86.57,7.15,1.6,2.29,1.03,4.4,2.49,6.32,4.37,3.44,3.38,5.42,6.95,5.93,10.71.51,3.76-.44,7.64-2.86,11.63l32.51,3.98ZM284.02,284.99l2.18-2.22c2.27-2.32,3.54-4.57,3.8-6.76.26-2.18-.52-4.16-2.32-5.92-1.8-1.77-3.79-2.5-5.97-2.21-2.18.3-4.41,1.61-6.68,3.93l-2.18,2.22,11.16,10.96Z"/><path class="cls-3" d="M354.87,222.57l20.73-11.69-12.02-21.32,14.36-8.1,31.16,55.23-14.36,8.1-12.85-22.78-20.73,11.69,12.85,22.78-14.36,8.1-31.16-55.23,14.36-8.1,12.03,21.32Z"/><path class="cls-3" d="M412.68,168.16l22.6,59.25-15.4,5.88-22.6-59.25,15.4-5.88Z"/><path class="cls-3" d="M446.32,157.95l12.41,47.87,19.13-4.96,3.5,13.51-35.09,9.09-15.91-61.38,15.96-4.14Z"/><path class="cls-3" d="M496.64,148.53l5.93,49.1,19.62-2.37,1.68,13.86-35.99,4.35-7.61-62.96,16.36-1.98Z"/><path class="cls-3" d="M554.31,207.02l20.93-60.82,16.1,2.65,7.04,35.43,17.94-31.31,16.1,2.65.31,64.32-16.18-2.67.54-36.9-20.71,33.58-6.47-1.07-8.09-38.32-11.33,35.13-16.18-2.67Z"/><path class="cls-3" d="M690.88,190.9l-18.29-7.02-3.8,9.89,17.27,6.63-5,13.04-17.27-6.63-3.92,10.21,18.3,7.02-5,13.03-33.68-12.93,22.72-59.2,33.68,12.93-5,13.03Z"/><path class="cls-3" d="M679.72,238.05l43.12-47.72,13.77,8.76-7.43,35.34,28.79-21.75,13.77,8.76-24.96,59.28-13.84-8.8,14.98-33.73-32.22,22.76-5.53-3.52,7.6-38.42-24.2,27.86-13.84-8.8Z"/><path class="cls-3" d="M772.8,262.1c3.42-3.24,7.21-5.62,11.36-7.14,4.15-1.53,8.38-2.21,12.7-2.05,4.32.16,8.57,1.22,12.76,3.16,4.19,1.95,8.05,4.79,11.59,8.54,3.5,3.71,6.11,7.72,7.84,12.03,1.72,4.31,2.55,8.64,2.48,12.98-.06,4.34-.97,8.54-2.74,12.59-1.76,4.05-4.35,7.7-7.78,10.93-3.43,3.24-7.21,5.61-11.36,7.15-4.15,1.53-8.39,2.2-12.73,2.01-4.34-.18-8.61-1.26-12.82-3.22-4.21-1.96-8.06-4.8-11.57-8.51-3.54-3.75-6.16-7.77-7.87-12.06-1.7-4.29-2.51-8.6-2.43-12.92.08-4.32,1.01-8.51,2.77-12.56,1.76-4.05,4.35-7.7,7.78-10.93ZM784.64,274.63c-1.84,1.73-3.2,3.68-4.09,5.83-.9,2.16-1.36,4.36-1.38,6.62-.02,2.26.39,4.47,1.24,6.64.85,2.17,2.1,4.12,3.76,5.88,1.65,1.75,3.54,3.11,5.65,4.09,2.11.97,4.31,1.52,6.59,1.65,2.28.12,4.52-.2,6.72-.97,2.2-.77,4.22-2.02,6.06-3.75,1.84-1.74,3.2-3.68,4.09-5.83.89-2.16,1.34-4.37,1.35-6.65,0-2.28-.42-4.5-1.27-6.67-.85-2.17-2.1-4.13-3.76-5.88-1.66-1.75-3.54-3.12-5.66-4.09s-4.3-1.51-6.56-1.62c-2.26-.11-4.49.23-6.69,1-2.21.77-4.22,2.02-6.06,3.75Z"/><path class="cls-3" d="M829.17,386.65l-10.73-17.49,12.57-26.16-20.79,12.75-8.62-14.05,54.06-33.15,13.41,21.87c1.85,3.01,3.02,5.91,3.51,8.7.49,2.79.42,5.38-.21,7.78-.64,2.4-1.73,4.58-3.28,6.55-1.55,1.97-3.48,3.66-5.77,5.07-4.11,2.52-8.06,3.57-11.83,3.16-3.77-.42-7.3-2.28-10.58-5.6l-11.73,30.58ZM840.12,337.42l1.63,2.65c1.7,2.77,3.58,4.55,5.63,5.32,2.06.78,4.16.51,6.31-.81,2.15-1.32,3.35-3.07,3.59-5.25.24-2.19-.49-4.67-2.19-7.44l-1.63-2.65-13.34,8.18Z"/><path class="cls-3" d="M894.89,381.16l-57.99,25.65-6.67-15.07,57.99-25.65,6.67,15.07Z"/><path class="cls-3" d="M862.99,451.38l-6.32-22.69-11.63-.69-4.72-16.93,67.57,6.24,4.83,17.34-54.61,40.27-4.72-16.93,9.6-6.6ZM873.89,443.8l18.35-12.79-22.32-1.47,3.97,14.26Z"/><path class="cls-3" d="M922.39,489.81l-49.18,5.16,2.06,19.65-13.88,1.46-3.78-36.05,63.07-6.61,1.72,16.39Z"/><path class="cls-5" d="M568.52,659.63l81.33,46.69c3.67-.26,7.34.25,11.01,1.12l-67.21-40.64-.05-17.94h.96s0-2.54,0-2.54l-39.98.14v2.53s9.54-.03,9.54-.03l.03,1.33-111.56,69.91c5.1-1.53,10.39-2.67,15.61-3.95l100.33-56.63Z"/><path class="cls-2" d="M666.35,710.75l-5.48-3.32c-3.67-.87-7.34-1.38-11.01-1.12l3.61,2.07c-61.35-10.32-125.41-7.96-185.38,7.93l.12-.07c-5.22,1.28-10.52,2.41-15.61,3.95l-1.76,1.1c-15.41,4.82-30.5,10.56-45.14,17.25-6.22,3.04-12.42,6.15-18.19,9.99l-.56.4-.27.21-.13.12s-.04.04-.06.07c-.03.04.02.06.05.05-.09,0,0-.07.03-.09l.15-.09.31-.15s.63-.28.63-.28c6.34-2.61,12.88-4.74,19.41-6.8,86.48-26.66,177.63-31.73,267.2-21.65l1.35.15c18.37,2.1,36.67,4.82,54.85,8.14-20.74-7.56-42.21-13.52-64.09-17.87Z"/><path class="cls-4" d="M474.19,673.08c49.83-9.23,88.67-58.29,73.06-116.48-6.21-23.17-19.16-42.02-37.41-57.34-7.66-6.44-15.38-12.82-23.19-19.07-19.48-15.58-39.56-30.41-58.73-46.38-3.78-3.15-7.72-6.14-10.87-9.98-8.3-10.11-11.47-21.78-10.38-34.69,1.29-15.3,7.8-27.92,20.74-36.32,17.56-11.41,36.19-11.57,54.97-3.05,10.64,4.83,18.05,12.77,21.44,24.18,1.27,4.26,4.14,15.29,4.14,15.29,0,0,.02.07,2.07,0,0-18.23.4-35.78.4-53.14-1.95-.56-20.14-2.64-28.35-3.51-12.31-1.3-24.6-2.83-37.06-1.35-17.96,2.14-33.34,9.19-45.06,23.14-15.06,17.91-20.86,38.61-17.18,61.75,1.59,10.01,5.36,19.2,11.82,27.23,6.85,8.51,15.32,15.19,23.77,21.93,3.84,3.06,7.96,5.78,11.75,9.48,0,1.9,0,3.95,0,6,.03,34.65.07,69.3.09,103.95,0,7.31.06,14.62-.87,21.9-.98,7.72-5.22,14.8-11.77,19.07-6.84,4.46-14,4.2-21.81,4.2v5.38h10.65c18.79.86,56.65.87,75.7,0h10.52v-.89s.06-.01.08-.02c-.03-.02-.05-.04-.08-.07v-4.41c-3.06,0-6.2.25-9.24.03-10.93-.78-21.23-8.74-23.53-19.48-1.07-5-1.31-10.1-1.33-15.17-.1-31.47-.06-62.94-.03-94.42,0-1.01-.48-2.28,1.02-3.02,3.87,2.95,7.79,5.91,11.68,8.91,8.93,6.9,17.89,13.8,25.58,22.12,18.1,19.57,26.49,42.4,22.08,69.08-3.35,20.23-13.15,36.56-30.75,47.78-15.62,9.95-32.65,14.46-51.15,13.83-17.69-.6-33.73-5.89-47.77-16.69-10.35-7.97-18.88-17.54-23.39-30.07-7.48-20.79-6.31-41.52,1.17-62.02,3.44-9.42,8.76-17.98,13.42-26.83.91-1.74,2.16-3.39,2.31-5.44-1.01-.33-1.46.12-1.94.5-5.91,4.65-11.13,9.96-15.35,16.21-14.75,21.84-18.88,45.78-13.74,71.42,2.57,12.8,7.78,24.49,16.01,34.72,11.41,14.19,26.19,23.43,43.39,28.89,20.76,6.59,41.81,6.81,63.11,2.86Z"/><path class="cls-5" d="M519.65,486.73c6.67,5.83,8.45,7.95,8.45,7.95,0,0,19.91-.02,42.69-.02-1.42,37.68-3.22,84.66-4.4,111.9-.25,5.72-.5,11.49-1.97,17.02-1.18,4.47-3.25,8.81-6.36,12.18l-3.49-.03-.03,3.97,39.95-.14.03-3.49-2.2-.02c-2.18-3.11-5.82-8.76-6.58-12.81-.69-3.69-2.28-40.6-3.43-60.9-1.16-20.57-2.33-41.13-3.49-61.7-.09-1.65-.2-3.68-.31-5.98,17.75,0,36.06,0,47.33.02,2.02,0,4.1-.21,6.17.43.56,1.51.37,2.94.37,4.34,0,30.67-.02,61.35.03,92.02,0,5.1-.28,10.18-.94,15.21-1.63,12.41-9.56,18.85-20.91,22.68-4.38,1.48-9.38.83-13.95.83v5.38h21.42c19.09.47,38.17.43,57.39,0h22.17s0-5.38,0-5.38c-3.66,0-7.33.08-10.99,0-.7-.02-1.39-.06-2.08-.14-10.18-1.18-19.73-9.23-22.18-19.03-1.51-6.04-1.72-12.25-1.72-18.45,0-71.2.02-142.4-.02-213.61,0-4.47.23-8.91.89-13.3,2.76-18.31,18.61-24.28,34.98-24.28v-5.38h-99.47v5.38c0-.54,11.49.56,12.28.71,10.1,2.02,18.6,7.43,21.38,17.75,1.42,5.26,1.64,10.67,1.66,16.07.07,33.53.1,67.07.11,100.6,0,1.23.29,2.55-.64,3.67-1.6.92-3.39.6-5.11.6-16.26.07-32.52.1-48.78.13-.84-19.78-1.76-44.39-1.76-44.39h-3.19s-.68,18.7-1.64,44.41c-17.62.05-35.24.09-52.85.18-1.44,0-1.88-.02-4.69-.02,2.17,1.7,4.12,4.08,5.89,5.63Z"/></svg>