<?xml version="1.0" encoding="UTF-8"?><svg id="Layer_1" xmlns="http://www.w3.org/2000/svg" viewBox="0 0 1080 1080"><defs><style>.cls-1{fill:#003462;}.cls-2{fill:#231f20;}.cls-3{fill:#be1e2d;}</style></defs><path class="cls-2" d="M84.12,781.52v-16.54h4.28c1.19,4.94,2.97,8.47,5.35,10.59,2.38,2.12,4.94,3.17,7.7,3.17,2.04,0,3.67-.61,4.88-1.82s1.82-2.64,1.82-4.28c0-1.16-.38-2.33-1.14-3.49-.76-1.16-2.57-2.46-5.42-3.88-5.49-2.73-9.2-4.74-11.12-6.01-1.92-1.27-3.47-2.91-4.63-4.9-1.17-2-1.75-4.29-1.75-6.88,0-4.16,1.49-7.59,4.47-10.28s6.43-4.05,10.36-4.05,7.6,1.38,10.48,4.13c.48-.71.87-1.81,1.18-3.28h4.1v14.26h-3.99c-.71-3.16-2.07-5.76-4.06-7.81s-4.24-3.07-6.74-3.07c-1.88,0-3.37.52-4.47,1.57-1.1,1.05-1.66,2.35-1.66,3.92,0,1.21.36,2.33,1.07,3.37.71,1.03,1.68,1.89,2.89,2.57,1.21.68,3.78,1.93,7.7,3.76,3.52,1.66,6.12,3.15,7.81,4.46,1.69,1.31,3.02,2.95,4.01,4.94.99,1.99,1.48,4.13,1.48,6.43,0,4.28-1.58,7.84-4.74,10.68-3.16,2.84-6.93,4.26-11.3,4.26-2.5,0-4.94-.52-7.33-1.57-2.39-1.05-4.29-2.44-5.72-4.17-.55,1.07-.95,2.38-1.21,3.92h-4.28Z"/><path class="cls-2" d="M123.08,737.96v-3.96h25.56v3.96h-.75c-2.4,0-3.96.45-4.69,1.34-.72.89-1.09,2.42-1.09,4.58v28.59c0,2.21.37,3.75,1.12,4.62.75.87,2.3,1.3,4.65,1.3h.75v3.96h-25.56v-3.96c2.57,0,4.27-.39,5.12-1.18s1.27-2.36,1.27-4.74v-28.59c0-2.3-.4-3.87-1.19-4.69-.8-.82-2.53-1.23-5.19-1.23Z"/><path class="cls-2" d="M196.69,766.26l-.21,16.08h-44.06v-3.96h.71c2.42,0,4-.45,4.72-1.34.72-.89,1.09-2.42,1.09-4.58v-28.59c0-2.21-.38-3.75-1.14-4.62-.76-.87-2.32-1.3-4.67-1.3h-.71v-3.96h25.91v3.96h-.96c-2.42,0-4,.45-4.72,1.34-.72.89-1.09,2.42-1.09,4.58v27.59c0,2.07.12,3.43.36,4.1.24.67.86,1.24,1.87,1.73,1.01.49,2.77.73,5.29.73,4.23,0,7.39-1.06,9.48-3.19,2.09-2.13,3.52-4.98,4.28-8.57h3.85Z"/><path class="cls-2" d="M217.19,783.34l-16.5-37.07c-1.33-3-2.25-4.91-2.75-5.76s-1.16-1.48-2-1.91-2.16-.64-3.99-.64v-3.96h25.7v3.96c-3.59,0-5.38.88-5.38,2.64,0,.97.51,2.58,1.53,4.81l9.91,21.92,9.3-21.96c.69-1.62,1.03-2.98,1.03-4.1,0-2.21-1.79-3.31-5.38-3.31v-3.96h17v3.96c-1.97,0-3.48.52-4.51,1.57-1.03,1.05-2.67,4.21-4.9,9.48l-14.69,34.33h-4.38Z"/><path class="cls-2" d="M265.78,759.24v11.94c0,2.28.13,3.77.39,4.47s.96,1.28,2.1,1.75c1.14.46,2.88.69,5.2.69,3.16,0,5.48-.39,6.97-1.18s2.82-2.16,3.99-4.13c1.18-1.97,2.03-4.08,2.55-6.31h3.99l-.32,15.86h-44.2v-3.96h.89c2.4,0,3.96-.45,4.69-1.34.72-.89,1.09-2.42,1.09-4.58v-28.66c0-2.21-.37-3.75-1.12-4.62-.75-.87-2.3-1.3-4.65-1.3h-.89v-3.89h41.17l.71,12.51h-3.99c-.71-2.19-1.51-3.93-2.39-5.22-.88-1.29-1.76-2.13-2.66-2.5-.89-.37-2.39-.55-4.51-.55h-9.02v16.68h4.49c2.14,0,3.56-.4,4.26-1.21.7-.81,1.1-2.4,1.19-4.78h4.03v16.4h-4.03c.02-.31.04-.54.04-.68,0-1.38-.29-2.62-.87-3.74-.58-1.12-2.07-1.68-4.47-1.68h-4.63Z"/><path class="cls-2" d="M314.29,761.02v11.44c0,2.21.38,3.75,1.14,4.62.76.87,2.32,1.3,4.67,1.3h.86v3.96h-26.06v-3.96h.96c2.42,0,4-.45,4.72-1.34.72-.89,1.09-2.42,1.09-4.58v-28.59c0-2.21-.38-3.75-1.14-4.62-.76-.87-2.32-1.3-4.67-1.3h-.96v-3.96l19.39-.04,4.35-.04c4.3,0,7.44.14,9.43.43,1.98.29,3.94.97,5.86,2.05s3.44,2.56,4.54,4.44c1.11,1.88,1.66,3.9,1.66,6.06,0,5.75-3.26,9.68-9.77,11.8,1.73,1.09,4.43,4.51,8.09,10.27,2.85,4.44,4.88,7.12,6.1,8.04,1.21.92,2.54,1.37,3.99,1.37v3.96h-15.11c-1.38-1.64-3.93-5.8-7.66-12.48-1.88-3.37-3.2-5.55-3.96-6.52-.76-.97-1.54-1.6-2.33-1.87-.8-.27-2.53-.42-5.19-.45ZM314.29,756.68c4.02.05,6.72-.2,8.13-.73,1.4-.54,2.51-1.5,3.32-2.89.81-1.39,1.21-3.27,1.21-5.65,0-3.4-.8-5.75-2.41-7.06-1.6-1.31-4.37-1.96-8.29-1.96-.5,0-1.15.01-1.96.04v18.25Z"/><path class="cls-2" d="M387.44,759.17v13.3c0,2.26.39,3.81,1.18,4.65s2.47,1.26,5.06,1.26v3.96h-25.2v-3.96c2.54,0,4.24-.4,5.08-1.19.84-.8,1.26-2.37,1.26-4.72v-28.59c0-2.28-.4-3.84-1.19-4.67-.8-.83-2.51-1.25-5.15-1.25v-3.96h25.2v3.96c-2.52,0-4.19.41-5.01,1.23s-1.23,2.38-1.23,4.69v10.84h19.85v-10.84c0-2.23-.39-3.78-1.16-4.63-.77-.86-2.43-1.28-4.97-1.28v-3.96h25.13v3.96c-2.57,0-4.27.39-5.11,1.18-.84.78-1.27,2.37-1.27,4.74v28.59c0,2.31.4,3.87,1.21,4.69.81.82,2.53,1.23,5.17,1.23v3.96h-25.13v-3.96c2.5,0,4.14-.42,4.94-1.25s1.19-2.39,1.19-4.67v-13.3h-19.85Z"/><path class="cls-2" d="M430,737.96v-3.96h25.56v3.96h-.75c-2.4,0-3.96.45-4.69,1.34-.72.89-1.09,2.42-1.09,4.58v28.59c0,2.21.37,3.75,1.12,4.62.75.87,2.3,1.3,4.65,1.3h.75v3.96h-25.56v-3.96c2.57,0,4.27-.39,5.12-1.18s1.27-2.36,1.27-4.74v-28.59c0-2.3-.4-3.87-1.19-4.69-.8-.82-2.53-1.23-5.19-1.23Z"/><path class="cls-2" d="M503.61,766.26l-.21,16.08h-44.06v-3.96h.71c2.42,0,4-.45,4.72-1.34.72-.89,1.09-2.42,1.09-4.58v-28.59c0-2.21-.38-3.75-1.14-4.62-.76-.87-2.32-1.3-4.67-1.3h-.71v-3.96h25.91v3.96h-.96c-2.42,0-4,.45-4.72,1.34-.72.89-1.09,2.42-1.09,4.58v27.59c0,2.07.12,3.43.36,4.1.24.67.86,1.24,1.87,1.73,1.01.49,2.77.73,5.29.73,4.23,0,7.39-1.06,9.48-3.19,2.09-2.13,3.52-4.98,4.28-8.57h3.85Z"/><path class="cls-2" d="M549.98,766.26l-.21,16.08h-44.06v-3.96h.71c2.42,0,4-.45,4.72-1.34.72-.89,1.09-2.42,1.09-4.58v-28.59c0-2.21-.38-3.75-1.14-4.62-.76-.87-2.32-1.3-4.67-1.3h-.71v-3.96h25.91v3.96h-.96c-2.42,0-4,.45-4.72,1.34-.72.89-1.09,2.42-1.09,4.58v27.59c0,2.07.12,3.43.36,4.1.24.67.86,1.24,1.87,1.73,1.01.49,2.77.73,5.29.73,4.23,0,7.39-1.06,9.48-3.19,2.09-2.13,3.52-4.98,4.28-8.57h3.85Z"/><path class="cls-2" d="M598.96,782.34l-17.96-37.68v24.99c0,2.23.15,3.88.46,4.94.31,1.06,1.03,1.96,2.16,2.69s2.5,1.1,4.12,1.1v3.96h-17.39v-3.96c1.52,0,2.84-.4,3.96-1.19s1.8-1.71,2.05-2.75c.25-1.03.37-2.69.37-4.97v-25.42c0-2.42-.42-4.05-1.26-4.87-.84-.82-2.55-1.23-5.12-1.23v-3.96h19.36l14.9,31.76,15.04-31.76h19.43v3.96h-.96c-2.42,0-4,.45-4.72,1.34-.72.89-1.09,2.42-1.09,4.58v28.59c0,2.21.37,3.75,1.12,4.62.75.87,2.31,1.3,4.69,1.3h1.1v3.96h-26.31v-3.96h.96c2.4,0,3.96-.45,4.69-1.34.72-.89,1.09-2.42,1.09-4.58v-28.41l-17.89,38.28h-2.78Z"/><path class="cls-2" d="M661.95,759.24v11.94c0,2.28.13,3.77.39,4.47s.96,1.28,2.1,1.75c1.14.46,2.88.69,5.2.69,3.16,0,5.48-.39,6.97-1.18s2.82-2.16,3.99-4.13c1.18-1.97,2.03-4.08,2.55-6.31h3.99l-.32,15.86h-44.2v-3.96h.89c2.4,0,3.96-.45,4.69-1.34.72-.89,1.09-2.42,1.09-4.58v-28.66c0-2.21-.37-3.75-1.12-4.62-.75-.87-2.3-1.3-4.65-1.3h-.89v-3.89h41.17l.71,12.51h-3.99c-.71-2.19-1.51-3.93-2.39-5.22-.88-1.29-1.76-2.13-2.66-2.5-.89-.37-2.39-.55-4.51-.55h-9.02v16.68h4.49c2.14,0,3.56-.4,4.26-1.21.7-.81,1.1-2.4,1.19-4.78h4.03v16.4h-4.03c.02-.31.04-.54.04-.68,0-1.38-.29-2.62-.87-3.74-.58-1.12-2.07-1.68-4.47-1.68h-4.63Z"/><path class="cls-2" d="M719.87,782.34l-17.96-37.68v24.99c0,2.23.15,3.88.46,4.94.31,1.06,1.03,1.96,2.16,2.69s2.5,1.1,4.12,1.1v3.96h-17.39v-3.96c1.52,0,2.84-.4,3.96-1.19s1.8-1.71,2.05-2.75c.25-1.03.37-2.69.37-4.97v-25.42c0-2.42-.42-4.05-1.26-4.87-.84-.82-2.55-1.23-5.12-1.23v-3.96h19.36l14.9,31.76,15.04-31.76h19.43v3.96h-.96c-2.42,0-4,.45-4.72,1.34-.72.89-1.09,2.42-1.09,4.58v28.59c0,2.21.37,3.75,1.12,4.62.75.87,2.31,1.3,4.69,1.3h1.1v3.96h-26.31v-3.96h.96c2.4,0,3.96-.45,4.69-1.34.72-.89,1.09-2.42,1.09-4.58v-28.41l-17.89,38.28h-2.78Z"/><path class="cls-2" d="M765.28,758.03c0-4.35,1.21-8.59,3.64-12.73s5.71-7.19,9.86-9.18c4.15-1.98,8.58-2.98,13.31-2.98,8.51,0,15.18,2.45,20.01,7.36s7.25,10.92,7.25,18.05-2.41,12.59-7.24,17.47c-4.83,4.87-11.38,7.31-19.68,7.31-5.68,0-10.7-1.2-15.06-3.6-4.36-2.4-7.47-5.63-9.32-9.68-1.85-4.05-2.78-8.06-2.78-12.03ZM780.18,757.64c0,7.44,1,12.8,2.99,16.09,2,3.29,4.97,4.94,8.91,4.94s7.21-1.5,9.3-4.51c2.09-3.01,3.14-8.28,3.14-15.81,0-6.89-.98-12.04-2.94-15.44-1.96-3.4-5.08-5.1-9.36-5.1-4.04,0-7.06,1.58-9.05,4.74-2,3.16-2.99,8.19-2.99,15.08Z"/><path class="cls-2" d="M843.56,761.02v11.44c0,2.21.38,3.75,1.14,4.62.76.87,2.32,1.3,4.67,1.3h.86v3.96h-26.06v-3.96h.96c2.42,0,4-.45,4.72-1.34.72-.89,1.09-2.42,1.09-4.58v-28.59c0-2.21-.38-3.75-1.14-4.62-.76-.87-2.32-1.3-4.67-1.3h-.96v-3.96l19.39-.04,4.35-.04c4.3,0,7.44.14,9.43.43,1.98.29,3.94.97,5.86,2.05s3.44,2.56,4.54,4.44c1.11,1.88,1.66,3.9,1.66,6.06,0,5.75-3.26,9.68-9.77,11.8,1.73,1.09,4.43,4.51,8.09,10.27,2.85,4.44,4.88,7.12,6.1,8.04,1.21.92,2.54,1.37,3.99,1.37v3.96h-15.11c-1.38-1.64-3.93-5.8-7.66-12.48-1.88-3.37-3.2-5.55-3.96-6.52-.76-.97-1.54-1.6-2.33-1.87-.8-.27-2.53-.42-5.19-.45ZM843.56,756.68c4.02.05,6.72-.2,8.13-.73,1.4-.54,2.51-1.5,3.32-2.89.81-1.39,1.21-3.27,1.21-5.65,0-3.4-.8-5.75-2.41-7.06-1.6-1.31-4.37-1.96-8.29-1.96-.5,0-1.15.01-1.96.04v18.25Z"/><path class="cls-2" d="M879.42,737.96v-3.96h25.56v3.96h-.75c-2.4,0-3.96.45-4.69,1.34-.72.89-1.09,2.42-1.09,4.58v28.59c0,2.21.37,3.75,1.12,4.62.75.87,2.3,1.3,4.65,1.3h.75v3.96h-25.56v-3.96c2.57,0,4.27-.39,5.12-1.18s1.27-2.36,1.27-4.74v-28.59c0-2.3-.4-3.87-1.19-4.69-.8-.82-2.53-1.23-5.19-1.23Z"/><path class="cls-2" d="M918.52,769.29l-.93,2.39c-.67,1.69-1,2.88-1,3.56,0,1.17.39,1.98,1.18,2.44.78.46,2.07.69,3.85.69v3.96h-15.97v-3.96c3.04,0,5.6-2.59,7.66-7.77l14.86-37.46h4.17l15.15,37.43c1.5,3.71,2.85,5.93,4.06,6.68,1.21.75,2.38,1.12,3.49,1.12v3.96h-23.99v-3.96c2.16,0,3.51-.21,4.03-.62s.78-.95.78-1.59c0-.57-.21-1.32-.64-2.25l-.46-1.11-1.39-3.53h-14.86ZM920.06,765.2h11.73l-6.02-14.44-5.7,14.44Z"/><path class="cls-2" d="M999.41,766.26l-.21,16.08h-44.06v-3.96h.71c2.42,0,4-.45,4.72-1.34.72-.89,1.09-2.42,1.09-4.58v-28.59c0-2.21-.38-3.75-1.14-4.62-.76-.87-2.32-1.3-4.67-1.3h-.71v-3.96h25.91v3.96h-.96c-2.42,0-4,.45-4.72,1.34-.72.89-1.09,2.42-1.09,4.58v27.59c0,2.07.12,3.43.36,4.1.24.67.86,1.24,1.87,1.73,1.01.49,2.77.73,5.29.73,4.23,0,7.39-1.06,9.48-3.19,2.09-2.13,3.52-4.98,4.28-8.57h3.85Z"/><path class="cls-2" d="M249.78,833.29c0,1.83-.21,3.57-.62,5.24s-1.11,3.14-2.09,4.42c-.98,1.28-2.26,2.31-3.84,3.08-1.59.77-3.53,1.15-5.84,1.15s-4.25-.38-5.84-1.15c-1.59-.77-2.87-1.79-3.84-3.08-.98-1.28-1.67-2.75-2.09-4.42-.42-1.67-.62-3.41-.62-5.24v-21h3.17v20.18c0,1.22.11,2.52.34,3.89.22,1.38.67,2.66,1.32,3.84.66,1.19,1.59,2.16,2.79,2.93s2.79,1.15,4.78,1.15,3.58-.38,4.78-1.15,2.13-1.75,2.79-2.93c.66-1.18,1.1-2.47,1.32-3.84.22-1.38.34-2.67.34-3.89v-20.18h3.17v21Z"/><path class="cls-2" d="M261.99,830.36c0-.42-.02-.92-.05-1.51-.03-.59-.06-1.19-.07-1.8-.02-.61-.04-1.18-.07-1.71-.03-.53-.05-.94-.05-1.23h2.88c.03.83.06,1.63.07,2.4.02.77.06,1.27.12,1.49h.14c.58-1.22,1.54-2.27,2.88-3.15,1.35-.88,2.92-1.32,4.71-1.32s3.14.27,4.23.82c1.09.54,1.95,1.26,2.57,2.14.62.88,1.06,1.9,1.3,3.05s.36,2.34.36,3.56v13.22h-2.88v-13.07c0-.9-.08-1.77-.24-2.62-.16-.85-.44-1.61-.84-2.28-.4-.67-.96-1.21-1.68-1.61-.72-.4-1.66-.6-2.81-.6-1.06,0-2.06.18-3,.55-.95.37-1.76.93-2.45,1.68-.69.75-1.23,1.7-1.63,2.84-.4,1.14-.6,2.47-.6,4.01v11.1h-2.88v-15.96Z"/><path class="cls-2" d="M292.79,815.31c0-.61.21-1.12.62-1.54s.93-.62,1.54-.62,1.12.21,1.54.62c.42.42.62.93.62,1.54s-.21,1.12-.62,1.54-.93.62-1.54.62-1.12-.21-1.54-.62c-.42-.42-.62-.93-.62-1.54ZM293.51,824.11h2.88v22.2h-2.88v-22.2Z"/><path class="cls-2" d="M319.75,826.7h-6.34v14.47c0,.99.27,1.76.82,2.31.54.55,1.3.82,2.26.82.54,0,1.1-.07,1.66-.22.56-.14,1.1-.33,1.61-.55l.24,2.59c-.54.19-1.17.37-1.87.53-.71.16-1.33.24-1.88.24-1.03,0-1.91-.15-2.64-.46-.74-.3-1.33-.71-1.78-1.23-.45-.51-.78-1.11-.99-1.8-.21-.69-.31-1.43-.31-2.24v-14.47h-4.81v-2.59h4.81v-6.39h2.88v6.39h6.34v2.59Z"/><path class="cls-2" d="M348.83,842.13c-1.12,1.7-2.51,2.92-4.16,3.65-1.65.74-3.47,1.11-5.46,1.11-1.7,0-3.24-.29-4.61-.87-1.38-.58-2.56-1.39-3.56-2.43s-1.75-2.28-2.28-3.7c-.53-1.42-.79-3-.79-4.73s.27-3.2.82-4.61c.54-1.41,1.31-2.63,2.31-3.68s2.16-1.86,3.51-2.45,2.83-.89,4.47-.89,3.2.3,4.49.89c1.3.59,2.39,1.38,3.27,2.35.88.98,1.55,2.09,1.99,3.34.45,1.25.67,2.51.67,3.8v2.02h-18.65c0,.61.12,1.39.36,2.33.24.95.68,1.87,1.32,2.76.64.9,1.5,1.67,2.57,2.31,1.07.64,2.46.96,4.16.96,1.47,0,2.9-.35,4.28-1.06,1.38-.7,2.43-1.67,3.17-2.88l2.11,1.78ZM346.62,833.34c0-.99-.2-1.92-.6-2.79-.4-.86-.95-1.62-1.63-2.28-.69-.66-1.51-1.18-2.45-1.56-.95-.38-1.95-.58-3-.58-1.57,0-2.88.32-3.92.96-1.04.64-1.87,1.38-2.47,2.21-.61.83-1.04,1.64-1.3,2.43-.26.79-.38,1.32-.38,1.61h15.76Z"/><path class="cls-2" d="M379.68,842.42h-.1c-.45.77-1.01,1.43-1.68,1.99-.67.56-1.4,1.03-2.19,1.39-.79.37-1.61.64-2.48.82-.87.18-1.71.26-2.55.26-1.7,0-3.27-.29-4.71-.87-1.44-.58-2.68-1.39-3.7-2.43-1.03-1.04-1.83-2.28-2.4-3.7-.58-1.42-.87-2.99-.87-4.69s.29-3.26.87-4.69c.58-1.43,1.38-2.66,2.4-3.7,1.02-1.04,2.26-1.85,3.7-2.43,1.44-.58,3.01-.87,4.71-.87.83,0,1.68.09,2.55.26.87.18,1.69.45,2.48.82.78.37,1.51.83,2.19,1.39s1.23,1.23,1.68,1.99h.1v-18.02h2.88v36.33h-2.88v-3.89ZM379.97,835.21c0-1.25-.24-2.43-.72-3.53s-1.14-2.07-1.97-2.88c-.83-.82-1.81-1.47-2.93-1.95-1.12-.48-2.34-.72-3.65-.72s-2.56.24-3.65.72c-1.09.48-2.02,1.13-2.79,1.95-.77.82-1.35,1.78-1.75,2.88s-.6,2.28-.6,3.53.2,2.43.6,3.53.99,2.07,1.75,2.88c.77.82,1.7,1.47,2.79,1.95,1.09.48,2.31.72,3.65.72s2.53-.24,3.65-.72c1.12-.48,2.1-1.13,2.93-1.95.83-.82,1.49-1.78,1.97-2.88s.72-2.28.72-3.53Z"/><path class="cls-2" d="M411.25,812.29h4.76l12.4,28.55,12.4-28.55h4.52v34.03h-3.17v-29.99h-.1l-12.98,29.99h-1.39l-13.17-29.99h-.1v29.99h-3.17v-34.03Z"/><path class="cls-2" d="M477.43,842.13c-1.12,1.7-2.51,2.92-4.16,3.65-1.65.74-3.47,1.11-5.46,1.11-1.7,0-3.24-.29-4.61-.87-1.38-.58-2.56-1.39-3.56-2.43s-1.75-2.28-2.28-3.7c-.53-1.42-.79-3-.79-4.73s.27-3.2.82-4.61c.54-1.41,1.31-2.63,2.31-3.68s2.16-1.86,3.51-2.45,2.83-.89,4.47-.89,3.2.3,4.49.89c1.3.59,2.39,1.38,3.27,2.35.88.98,1.55,2.09,1.99,3.34.45,1.25.67,2.51.67,3.8v2.02h-18.65c0,.61.12,1.39.36,2.33.24.95.68,1.87,1.32,2.76.64.9,1.5,1.67,2.57,2.31,1.07.64,2.46.96,4.16.96,1.47,0,2.9-.35,4.28-1.06,1.38-.7,2.43-1.67,3.17-2.88l2.11,1.78ZM475.22,833.34c0-.99-.2-1.92-.6-2.79-.4-.86-.95-1.62-1.63-2.28-.69-.66-1.51-1.18-2.45-1.56-.95-.38-1.95-.58-3-.58-1.57,0-2.88.32-3.92.96-1.04.64-1.87,1.38-2.47,2.21-.61.83-1.04,1.64-1.3,2.43-.26.79-.38,1.32-.38,1.61h15.76Z"/><path class="cls-2" d="M499.73,826.7h-6.34v14.47c0,.99.27,1.76.82,2.31.54.55,1.3.82,2.26.82.54,0,1.1-.07,1.66-.22.56-.14,1.1-.33,1.61-.55l.24,2.59c-.54.19-1.17.37-1.87.53-.71.16-1.33.24-1.88.24-1.03,0-1.91-.15-2.64-.46-.74-.3-1.33-.71-1.78-1.23-.45-.51-.78-1.11-.99-1.8-.21-.69-.31-1.43-.31-2.24v-14.47h-4.81v-2.59h4.81v-6.39h2.88v6.39h6.34v2.59Z"/><path class="cls-2" d="M509.24,809.98h2.88v18.02h.1c.58-1.22,1.54-2.27,2.88-3.15,1.35-.88,2.92-1.32,4.71-1.32s3.14.27,4.23.82c1.09.54,1.95,1.26,2.57,2.14.62.88,1.06,1.9,1.3,3.05s.36,2.34.36,3.56v13.22h-2.88v-13.07c0-.9-.08-1.77-.24-2.62-.16-.85-.44-1.61-.84-2.28-.4-.67-.96-1.21-1.68-1.61-.72-.4-1.66-.6-2.81-.6-1.06,0-2.06.18-3,.55-.95.37-1.76.93-2.45,1.68-.69.75-1.23,1.7-1.63,2.84-.4,1.14-.6,2.47-.6,4.01v11.1h-2.88v-36.33Z"/><path class="cls-2" d="M539.04,835.21c0-1.7.29-3.26.87-4.69.58-1.43,1.38-2.66,2.4-3.7,1.02-1.04,2.26-1.85,3.7-2.43,1.44-.58,3.01-.87,4.71-.87s3.26.29,4.69.87c1.43.58,2.66,1.39,3.7,2.43s1.85,2.27,2.43,3.7c.58,1.43.87,2.99.87,4.69s-.29,3.26-.87,4.69c-.58,1.43-1.39,2.66-2.43,3.7s-2.27,1.85-3.7,2.43c-1.43.58-2.99.87-4.69.87s-3.27-.29-4.71-.87c-1.44-.58-2.68-1.39-3.7-2.43-1.03-1.04-1.83-2.28-2.4-3.7-.58-1.42-.87-2.99-.87-4.69ZM541.92,835.21c0,1.25.2,2.43.6,3.53s.99,2.07,1.75,2.88c.77.82,1.7,1.47,2.79,1.95,1.09.48,2.31.72,3.65.72s2.56-.24,3.65-.72c1.09-.48,2.02-1.13,2.79-1.95.77-.82,1.35-1.78,1.75-2.88.4-1.11.6-2.28.6-3.53s-.2-2.43-.6-3.53c-.4-1.11-.99-2.07-1.75-2.88-.77-.82-1.7-1.47-2.79-1.95-1.09-.48-2.31-.72-3.65-.72s-2.56.24-3.65.72c-1.09.48-2.02,1.13-2.79,1.95-.77.82-1.35,1.78-1.75,2.88s-.6,2.28-.6,3.53Z"/><path class="cls-2" d="M592.58,842.42h-.1c-.45.77-1.01,1.43-1.68,1.99-.67.56-1.4,1.03-2.19,1.39-.79.37-1.61.64-2.48.82-.87.18-1.71.26-2.55.26-1.7,0-3.27-.29-4.71-.87-1.44-.58-2.68-1.39-3.7-2.43-1.03-1.04-1.83-2.28-2.4-3.7-.58-1.42-.87-2.99-.87-4.69s.29-3.26.87-4.69c.58-1.43,1.38-2.66,2.4-3.7,1.02-1.04,2.26-1.85,3.7-2.43,1.44-.58,3.01-.87,4.71-.87.83,0,1.68.09,2.55.26.87.18,1.69.45,2.48.82.78.37,1.51.83,2.19,1.39s1.23,1.23,1.68,1.99h.1v-18.02h2.88v36.33h-2.88v-3.89ZM592.87,835.21c0-1.25-.24-2.43-.72-3.53s-1.14-2.07-1.97-2.88c-.83-.82-1.81-1.47-2.93-1.95-1.12-.48-2.34-.72-3.65-.72s-2.56.24-3.65.72c-1.09.48-2.02,1.13-2.79,1.95-.77.82-1.35,1.78-1.75,2.88s-.6,2.28-.6,3.53.2,2.43.6,3.53.99,2.07,1.75,2.88c.77.82,1.7,1.47,2.79,1.95,1.09.48,2.31.72,3.65.72s2.53-.24,3.65-.72c1.12-.48,2.1-1.13,2.93-1.95.83-.82,1.49-1.78,1.97-2.88s.72-2.28.72-3.53Z"/><path class="cls-2" d="M606.66,815.31c0-.61.21-1.12.62-1.54s.93-.62,1.54-.62,1.12.21,1.54.62c.42.42.62.93.62,1.54s-.21,1.12-.62,1.54-.93.62-1.54.62-1.12-.21-1.54-.62c-.42-.42-.62-.93-.62-1.54ZM607.38,824.11h2.88v22.2h-2.88v-22.2Z"/><path class="cls-2" d="M622.8,840.64c.61,1.19,1.51,2.09,2.69,2.71,1.18.62,2.43.94,3.75.94.61,0,1.22-.1,1.83-.29.61-.19,1.15-.46,1.63-.82.48-.35.87-.78,1.18-1.27.3-.5.46-1.06.46-1.71,0-1.03-.33-1.79-.99-2.31-.66-.51-1.47-.91-2.43-1.2-.96-.29-2.02-.54-3.17-.75-1.15-.21-2.21-.53-3.17-.96-.96-.43-1.77-1.03-2.43-1.8-.66-.77-.99-1.86-.99-3.27,0-1.09.22-2.03.67-2.84.45-.8,1.03-1.47,1.75-1.99s1.53-.92,2.43-1.18c.9-.26,1.81-.38,2.74-.38,1.83,0,3.4.34,4.73,1.01,1.33.67,2.36,1.73,3.1,3.17l-2.59,1.54c-.55-1.03-1.23-1.8-2.04-2.33s-1.88-.79-3.2-.79c-.51,0-1.05.08-1.61.24-.56.16-1.07.38-1.51.67-.45.29-.83.66-1.13,1.11-.3.45-.46.96-.46,1.54,0,.99.33,1.73.99,2.21.66.48,1.47.86,2.43,1.13.96.27,2.02.5,3.17.7,1.15.19,2.21.5,3.17.94s1.77,1.06,2.43,1.87c.66.82.99,1.98.99,3.48,0,1.15-.22,2.16-.65,3-.43.85-1.03,1.56-1.78,2.14-.75.58-1.61,1.01-2.57,1.3-.96.29-1.97.43-3.03.43-1.92,0-3.68-.37-5.26-1.11-1.59-.74-2.81-1.88-3.68-3.41l2.55-1.73Z"/><path class="cls-2" d="M658.42,826.7h-6.34v14.47c0,.99.27,1.76.82,2.31.54.55,1.3.82,2.26.82.54,0,1.1-.07,1.66-.22.56-.14,1.1-.33,1.61-.55l.24,2.59c-.54.19-1.17.37-1.87.53-.71.16-1.33.24-1.88.24-1.03,0-1.91-.15-2.64-.46-.74-.3-1.33-.71-1.78-1.23-.45-.51-.78-1.11-.99-1.8-.21-.69-.31-1.43-.31-2.24v-14.47h-4.81v-2.59h4.81v-6.39h2.88v6.39h6.34v2.59Z"/><path class="cls-2" d="M713.54,840.98c-1.63,2.21-3.52,3.8-5.67,4.76-2.15.96-4.47,1.44-6.97,1.44s-4.97-.44-7.14-1.32c-2.16-.88-4.01-2.11-5.55-3.7-1.54-1.59-2.74-3.48-3.6-5.67-.87-2.19-1.3-4.59-1.3-7.18s.43-4.98,1.3-7.16c.86-2.18,2.07-4.06,3.6-5.65,1.54-1.59,3.39-2.83,5.55-3.72,2.16-.9,4.54-1.35,7.14-1.35,2.31,0,4.46.41,6.46,1.23s3.76,2.19,5.26,4.11l-2.59,2.16c-1.06-1.6-2.41-2.77-4.06-3.51s-3.34-1.11-5.07-1.11c-2.21,0-4.21.38-5.98,1.15-1.78.77-3.29,1.83-4.54,3.17s-2.21,2.93-2.88,4.76-1.01,3.8-1.01,5.91.34,4.08,1.01,5.91,1.63,3.41,2.88,4.76,2.76,2.4,4.54,3.17c1.78.77,3.77,1.15,5.98,1.15.87,0,1.76-.1,2.69-.31.93-.21,1.83-.53,2.72-.96.88-.43,1.72-.98,2.52-1.63.8-.66,1.51-1.45,2.12-2.38l2.59,1.97Z"/><path class="cls-2" d="M722.86,809.98h2.88v18.02h.1c.58-1.22,1.54-2.27,2.88-3.15,1.35-.88,2.92-1.32,4.71-1.32s3.14.27,4.23.82c1.09.54,1.95,1.26,2.57,2.14.62.88,1.06,1.9,1.3,3.05s.36,2.34.36,3.56v13.22h-2.88v-13.07c0-.9-.08-1.77-.24-2.62-.16-.85-.44-1.61-.84-2.28-.4-.67-.96-1.21-1.68-1.61-.72-.4-1.66-.6-2.81-.6-1.06,0-2.06.18-3,.55-.95.37-1.76.93-2.45,1.68-.69.75-1.23,1.7-1.63,2.84-.4,1.14-.6,2.47-.6,4.01v11.1h-2.88v-36.33Z"/><path class="cls-2" d="M772.7,840.06c0,.42.02.92.05,1.51.03.59.06,1.19.07,1.8.02.61.04,1.18.07,1.71.03.53.05.94.05,1.23h-2.88c-.03-.83-.06-1.63-.07-2.4-.02-.77-.06-1.26-.12-1.49h-.14c-.58,1.22-1.54,2.27-2.88,3.15s-2.92,1.32-4.71,1.32-3.15-.27-4.25-.82c-1.11-.54-1.97-1.26-2.59-2.14-.62-.88-1.05-1.9-1.27-3.05s-.34-2.34-.34-3.56v-13.22h2.88v13.07c0,.9.08,1.77.24,2.62.16.85.44,1.61.84,2.28.4.67.96,1.21,1.68,1.61.72.4,1.66.6,2.81.6,1.06,0,2.06-.18,3-.55.94-.37,1.76-.93,2.45-1.68.69-.75,1.23-1.7,1.63-2.84.4-1.14.6-2.47.6-4.01v-11.1h2.88v15.96Z"/><path class="cls-2" d="M784.95,830.36c0-.42-.02-.92-.05-1.51-.03-.59-.06-1.19-.07-1.8-.02-.61-.04-1.18-.07-1.71-.03-.53-.05-.94-.05-1.23h2.88c.03.83.06,1.63.07,2.4.02.77.06,1.27.12,1.49.74-1.31,1.68-2.39,2.84-3.22,1.15-.83,2.56-1.25,4.23-1.25.29,0,.57.02.84.07.27.05.55.1.84.17l-.34,2.83c-.38-.13-.75-.19-1.11-.19-1.25,0-2.33.2-3.24.6-.91.4-1.67.95-2.26,1.66-.59.71-1.03,1.53-1.32,2.48-.29.95-.43,1.96-.43,3.05v12.11h-2.88v-15.96Z"/><path class="cls-2" d="M823.02,843.04c-1.09,1.31-2.32,2.28-3.7,2.91-1.38.62-2.87.94-4.47.94-1.7,0-3.27-.29-4.71-.87-1.44-.58-2.68-1.39-3.7-2.43-1.03-1.04-1.83-2.28-2.4-3.7-.58-1.42-.87-2.99-.87-4.69s.29-3.26.87-4.69c.58-1.43,1.38-2.66,2.4-3.7,1.02-1.04,2.26-1.85,3.7-2.43,1.44-.58,3.01-.87,4.71-.87s3.15.34,4.54,1.01c1.39.67,2.63,1.62,3.72,2.83l-2.31,1.73c-.83-.93-1.75-1.66-2.74-2.19s-2.07-.79-3.22-.79c-1.35,0-2.56.24-3.65.72-1.09.48-2.02,1.13-2.79,1.95-.77.82-1.35,1.78-1.75,2.88s-.6,2.28-.6,3.53.2,2.43.6,3.53.99,2.07,1.75,2.88c.77.82,1.7,1.47,2.79,1.95,1.09.48,2.31.72,3.65.72,1.22,0,2.33-.28,3.34-.84,1.01-.56,1.88-1.31,2.62-2.23l2.21,1.83Z"/><path class="cls-2" d="M831.86,809.98h2.88v18.02h.1c.58-1.22,1.54-2.27,2.88-3.15,1.35-.88,2.92-1.32,4.71-1.32s3.14.27,4.23.82c1.09.54,1.95,1.26,2.57,2.14.62.88,1.06,1.9,1.3,3.05s.36,2.34.36,3.56v13.22h-2.88v-13.07c0-.9-.08-1.77-.24-2.62-.16-.85-.44-1.61-.84-2.28-.4-.67-.96-1.21-1.68-1.61-.72-.4-1.66-.6-2.81-.6-1.06,0-2.06.18-3,.55-.95.37-1.76.93-2.45,1.68-.69.75-1.23,1.7-1.63,2.84-.4,1.14-.6,2.47-.6,4.01v11.1h-2.88v-36.33Z"/><path class="cls-3" d="M466.08,606.35c55.98-10.36,99.6-65.47,82.07-130.84-6.98-26.02-21.52-47.2-42.02-64.41-8.61-7.23-17.27-14.4-26.05-21.42-21.88-17.51-44.44-34.16-65.97-52.1-4.25-3.54-8.67-6.9-12.21-11.21-9.33-11.36-12.88-24.47-11.66-38.96,1.45-17.19,8.77-31.36,23.29-40.8,19.72-12.82,40.65-13,61.75-3.42,11.95,5.42,20.28,14.34,24.08,27.16,1.42,4.78,4.65,17.18,4.65,17.18,0,0,.02.07,2.32-.01,0-20.47.45-40.19.45-59.7-2.19-.63-22.62-2.97-31.85-3.94-13.82-1.46-27.63-3.18-41.63-1.51-20.17,2.41-37.45,10.32-50.62,25.99-16.92,20.12-23.43,43.37-19.3,69.36,1.79,11.24,6.02,21.57,13.28,30.59,7.69,9.56,17.21,17.06,26.71,24.63,4.31,3.44,8.95,6.49,13.2,10.65,0,2.14,0,4.44,0,6.74.04,38.92.07,77.85.1,116.77,0,8.21.07,16.42-.97,24.6-1.1,8.67-5.86,16.62-13.22,21.42-7.68,5.01-15.72,4.71-24.5,4.71v6.04h11.96c21.11.97,63.64.98,85.03,0h11.81v-1s.06-.01.09-.02c-.03-.03-.06-.05-.09-.07v-4.96c-3.43,0-6.97.28-10.38.04-12.27-.88-23.85-9.82-26.43-21.88-1.2-5.61-1.47-11.35-1.49-17.04-.11-35.35-.07-70.7-.04-106.05,0-1.13-.54-2.56,1.15-3.39,4.34,3.31,8.75,6.64,13.12,10.01,10.03,7.75,20.09,15.5,28.73,24.84,20.33,21.98,29.76,47.62,24.8,77.59-3.76,22.73-14.77,41.07-34.54,53.67-17.54,11.18-36.68,16.24-57.45,15.53-19.87-.68-37.89-6.62-53.65-18.75-11.62-8.95-21.2-19.7-26.27-33.78-8.4-23.36-7.09-46.64,1.31-69.66,3.86-10.59,9.84-20.19,15.07-30.13,1.03-1.95,2.43-3.81,2.6-6.11-1.13-.37-1.64.14-2.18.57-6.64,5.22-12.51,11.19-17.24,18.2-16.57,24.53-21.21,51.42-15.43,80.22,2.88,14.38,8.74,27.51,17.98,39,12.82,15.94,29.42,26.32,48.74,32.46,23.32,7.41,46.96,7.65,70.89,3.22Z"/><path class="cls-1" d="M681.92,648.67l-6.16-3.72-75.5-45.65-.06-20.15h1.08s-.01-2.85-.01-2.85l-44.91.16v2.85s10.72-.04,10.72-.04l.03,1.49-125.31,78.53-1.97,1.24c-17.31,5.42-34.26,11.86-50.7,19.37-6.98,3.41-13.96,6.91-20.43,11.22l-.63.45-.31.24-.15.13s-.05.05-.07.08c-.04.04.02.07.05.05-.11,0,0-.07.04-.1l.16-.1.34-.17s.7-.32.7-.32c7.12-2.94,14.46-5.33,21.8-7.64,97.15-29.95,199.53-35.64,300.14-24.31l1.51.17c20.63,2.36,41.19,5.41,61.61,9.14-23.3-8.49-47.42-15.19-71.99-20.07ZM459.22,654.93l.13-.07,112.69-63.61,91.35,52.45,4.06,2.33c-68.91-11.59-140.87-8.94-208.23,8.9Z"/><path class="cls-1" d="M517.14,397.04c7.5,6.55,9.49,8.93,9.49,8.93,0,0,22.36-.02,47.95-.03-1.59,42.33-3.61,95.09-4.95,125.69-.28,6.42-.57,12.91-2.21,19.12-1.33,5.02-3.65,9.89-7.14,13.69l-3.92-.03-.03,4.46,44.88-.16.03-3.92-2.47-.02c-2.44-3.49-6.54-9.84-7.39-14.39-.78-4.14-2.56-45.61-3.85-68.41-1.31-23.1-2.61-46.21-3.92-69.31-.1-1.85-.22-4.14-.35-6.72,19.93,0,40.5,0,53.16.03,2.27,0,4.6-.23,6.93.48.63,1.7.41,3.3.41,4.87,0,34.46-.02,68.91.03,103.37,0,5.73-.32,11.43-1.06,17.09-1.83,13.94-10.74,21.18-23.49,25.48-4.92,1.66-10.53.93-15.67.93v6.04h24.06c21.44.53,42.87.48,64.47,0h24.91s0-6.04,0-6.04c-4.11,0-8.23.09-12.34,0-.78-.02-1.56-.07-2.34-.16-11.43-1.33-22.17-10.36-24.91-21.38-1.69-6.79-1.93-13.76-1.93-20.73,0-79.98.02-159.96-.02-239.94,0-5.02.25-10,1-14.94,3.1-20.57,20.9-27.27,39.29-27.27v-6.04h-111.73v6.04c0-.6,12.91.62,13.79.8,11.35,2.27,20.89,8.34,24.02,19.94,1.59,5.91,1.85,11.98,1.86,18.05.08,37.67.11,75.34.13,113,0,1.38.33,2.86-.72,4.13-1.8,1.04-3.81.67-5.74.68-18.26.07-36.53.11-54.79.15-.95-22.21-1.98-49.87-1.98-49.87h-3.59s-.77,21-1.84,49.89c-19.79.05-39.58.1-59.37.2-1.61,0-2.12-.02-5.27-.02,2.44,1.91,4.63,4.59,6.62,6.32Z"/></svg>