<?xml version="1.0" encoding="UTF-8"?><svg id="Layer_1" xmlns="http://www.w3.org/2000/svg" viewBox="0 0 1080 1080"><defs><style>.cls-1{fill:#003462;}.cls-2{fill:#fff;}</style></defs><circle class="cls-1" cx="540" cy="540" r="362.32"/><path class="cls-2" d="M574.91,686.39l99.52,57.14c4.49-.32,8.98.3,13.48,1.37l-82.25-49.74-.06-21.95h1.18s-.01-3.11-.01-3.11l-48.92.18v3.1s11.67-.04,11.67-.04l.04,1.63-136.51,85.55c6.24-1.88,12.72-3.26,19.11-4.83l122.77-69.29Z"/><path class="cls-2" d="M694.61,748.95l-6.71-4.06c-4.49-1.06-8.98-1.68-13.48-1.37l4.42,2.54c-75.07-12.62-153.46-9.74-226.85,9.7l.14-.08c-6.39,1.57-12.87,2.95-19.11,4.83l-2.15,1.35c-18.85,5.9-37.32,12.92-55.24,21.1-7.61,3.71-15.2,7.53-22.26,12.22l-.69.5-.33.26-.16.14s-.05.05-.07.08c-.04.04.03.08.06.06-.11,0,0-.08.04-.11l.18-.11.37-.19s.77-.35.77-.35c7.75-3.2,15.76-5.8,23.75-8.32,105.83-32.63,217.37-38.83,326.98-26.49l1.65.19c22.48,2.57,44.87,5.9,67.12,9.96-25.38-9.25-51.65-16.55-78.43-21.86Z"/><path class="cls-2" d="M459.46,702.85c60.98-11.29,108.51-71.32,89.41-142.54-7.6-28.35-23.44-51.41-45.78-70.17-9.38-7.88-18.82-15.69-28.38-23.34-23.84-19.07-48.41-37.22-71.87-56.76-4.63-3.85-9.44-7.51-13.3-12.21-10.16-12.37-14.03-26.65-12.7-42.44,1.58-18.72,9.55-34.16,25.38-44.45,21.49-13.96,44.29-14.16,67.27-3.73,13.02,5.91,22.09,15.62,26.24,29.59,1.55,5.21,5.06,18.71,5.06,18.71,0,0,.02.08,2.53-.01,0-22.3.49-43.78.49-65.03-2.39-.69-24.65-3.23-34.69-4.29-15.06-1.59-30.1-3.47-45.35-1.65-21.98,2.62-40.8,11.25-55.14,28.31-18.43,21.92-25.53,47.25-21.02,75.56,1.95,12.25,6.56,23.5,14.47,33.33,8.38,10.41,18.75,18.59,29.09,26.83,4.7,3.75,9.75,7.07,14.38,11.6,0,2.33,0,4.84,0,7.35.04,42.4.08,84.81.11,127.21,0,8.94.07,17.89-1.06,26.79-1.2,9.45-6.39,18.11-14.4,23.33-8.37,5.45-17.13,5.13-26.69,5.13v6.58h13.03c23,1.05,69.33,1.06,92.64,0h12.87v-1.08s.07-.01.1-.02c-.03-.03-.07-.05-.1-.08v-5.4c-3.74,0-7.59.31-11.31.04-13.37-.96-25.98-10.7-28.79-23.83-1.31-6.12-1.6-12.36-1.62-18.56-.12-38.51-.07-77.02-.04-115.54,0-1.23-.58-2.79,1.25-3.7,4.73,3.61,9.53,7.23,14.29,10.91,10.93,8.45,21.89,16.89,31.3,27.07,22.14,23.94,32.42,51.88,27.01,84.53-4.1,24.76-16.09,44.74-37.63,58.46-19.11,12.17-39.96,17.69-62.59,16.92-21.64-.74-41.28-7.21-58.45-20.43-12.66-9.75-23.1-21.46-28.62-36.8-9.15-25.45-7.73-50.81,1.43-75.89,4.21-11.53,10.72-22,16.42-32.83,1.12-2.12,2.64-4.15,2.83-6.65-1.24-.4-1.79.15-2.38.62-7.23,5.69-13.62,12.19-18.78,19.83-18.05,26.73-23.1,56.02-16.81,87.4,3.14,15.67,9.52,29.97,19.59,42.49,13.97,17.37,32.05,28.67,53.1,35.36,25.4,8.07,51.16,8.33,77.23,3.51Z"/><path class="cls-2" d="M515.1,474.82c8.17,7.13,10.34,9.73,10.34,9.73,0,0,24.36-.02,52.24-.03-1.73,46.11-3.94,103.6-5.39,136.93-.3,7-.62,14.06-2.41,20.83-1.45,5.47-3.97,10.78-7.78,14.91l-4.27-.04-.03,4.86,48.89-.18.04-4.27-2.69-.03c-2.66-3.8-7.12-10.72-8.06-15.68-.85-4.51-2.79-49.68-4.2-74.52-1.42-25.17-2.85-50.34-4.27-75.51-.11-2.01-.24-4.51-.38-7.32,21.72,0,44.13,0,57.91.03,2.48,0,5.01-.26,7.55.53.69,1.85.45,3.6.45,5.31,0,37.54-.03,75.07.03,112.61.01,6.24-.34,12.45-1.15,18.62-1.99,15.18-11.7,23.07-25.59,27.76-5.36,1.81-11.47,1.02-17.08,1.02v6.58h26.22c23.36.58,46.71.52,70.23,0h27.13s0-6.58,0-6.58c-4.48,0-8.97.1-13.44,0-.85-.02-1.7-.08-2.55-.18-12.46-1.45-24.15-11.29-27.14-23.29-1.85-7.4-2.1-14.99-2.1-22.58,0-87.13.02-174.26-.03-261.39,0-5.46.28-10.9,1.09-16.27,3.37-22.41,22.77-29.71,42.81-29.71v-6.58h-121.72v6.58c0-.66,14.06.68,15.03.87,12.36,2.47,22.76,9.09,26.17,21.72,1.73,6.43,2.01,13.05,2.03,19.66.09,41.04.12,82.07.14,123.11,0,1.5.36,3.12-.78,4.5-1.96,1.13-4.15.73-6.25.74-19.9.08-39.8.12-59.69.17-1.03-24.2-2.16-54.33-2.16-54.33h-3.91s-.83,22.88-2.01,54.35c-21.56.06-43.12.11-64.68.22-1.76,0-2.3-.02-5.74-.02,2.65,2.08,5.04,5,7.21,6.89Z"/></svg>